<svg xmlns="http://www.w3.org/2000/svg" xmlns:xlink="http://www.w3.org/1999/xlink" width="1536" height="864" viewBox="0 0 1152 648"><defs><style>*{stroke-linejoin:round;stroke-linecap:butt}</style></defs><g id="figure_1"><path id="patch_1" d="M0 648h1152V0H0z" style="fill:#fafafa"/><g id="axes_1"><path id="patch_2" d="M59.083 594.895H1149V3H59.083z" style="fill:#fafafa"/><g id="matplotlib.axis_1"><g id="xtick_1"><g id="text_1" style="fill:#262626" transform="matrix(.165 0 0 -.165 98.313 619.507)"><defs><path id="EquityBRegular-31" d="M307 3533c205-51 519-39 819 32V320l-672-96V0h1882v224l-672 96v3706l-288 32c-314-199-672-314-1069-320z" transform="scale(.01563)"/><path id="EquityBRegular-30" d="M288 1907C288 538 934-77 1722-77c761 0 1350 634 1350 1984 0 1472-589 2176-1350 2176-788 0-1434-685-1434-2176m608 7c0 1318 390 1926 826 1926 403 0 748-538 748-1926 0-1280-345-1748-748-1748-436 0-826 442-826 1748" transform="scale(.01563)"/></defs><use xlink:href="#EquityBRegular-31" transform="translate(0 .558)"/><use xlink:href="#EquityBRegular-30" transform="translate(40.7 .558)"/><use xlink:href="#EquityBRegular-31" transform="matrix(.7 0 0 .7 94.001 32.616)"/></g></g><g id="xtick_2"><g id="text_2" style="fill:#262626" transform="matrix(.165 0 0 -.165 221.59 619.507)"><defs><path id="EquityBRegular-32" d="M2176 2989c0-935-1280-2253-1946-2784L307 0h2375l358 864-211 83-288-435H1107l-38 90c582 518 1709 1798 1709 2553 0 506-340 928-992 928-647 0-1146-557-1383-921l192-205c314 384 634 672 992 672 371 0 589-301 589-640" transform="scale(.01563)"/></defs><use xlink:href="#EquityBRegular-31" transform="translate(0 .284)"/><use xlink:href="#EquityBRegular-30" transform="translate(40.7 .284)"/><use xlink:href="#EquityBRegular-32" transform="matrix(.7 0 0 .7 94.001 32.342)"/></g></g><g id="xtick_3"><g id="text_3" style="fill:#262626" transform="matrix(.165 0 0 -.165 345.69 619.507)"><defs><path id="EquityBRegular-33" d="M2470 3366c0 442-352 717-761 717-679 0-1152-499-1408-851l179-192c243 339 563 621 947 621 295 0 487-154 487-455 0-441-474-876-1108-1203l148-224 230 128c205 96 877-288 877-947 0-506-359-723-634-723-518 0-518 537-870 537-224 0-333-147-333-281 0-327 371-570 1056-570 595 0 1318 410 1318 1255 0 512-416 985-857 1113v64c301 199 729 570 729 1011" transform="scale(.01563)"/></defs><use xlink:href="#EquityBRegular-31" transform="translate(0 .284)"/><use xlink:href="#EquityBRegular-30" transform="translate(40.7 .284)"/><use xlink:href="#EquityBRegular-33" transform="matrix(.7 0 0 .7 94.001 32.342)"/></g></g><g id="xtick_4"><g id="text_4" style="fill:#262626" transform="matrix(.165 0 0 -.165 469.297 619.507)"><defs><path id="EquityBRegular-34" d="M2214 4134 237 1414l102-236h1626V0h505v1184h512v390h-512v2452zm-249-972V1574H781l-32 64 1145 1562z" transform="scale(.01563)"/></defs><use xlink:href="#EquityBRegular-31" transform="translate(0 .727)"/><use xlink:href="#EquityBRegular-30" transform="translate(40.7 .727)"/><use xlink:href="#EquityBRegular-34" transform="matrix(.7 0 0 .7 94.001 32.784)"/></g></g><g id="xtick_5"><g id="text_5" style="fill:#262626" transform="matrix(.165 0 0 -.165 593.4 619.507)"><defs><path id="EquityBRegular-35" d="m506 2189 115-115c57 12 185 70 467 70 602 0 1024-435 1024-986 0-595-294-838-698-838-486 0-531 301-889 301-205 0-301-141-301-295 0-243 320-403 794-403 896 0 1587 583 1587 1472 0 813-666 1255-1287 1255-192 0-313-32-396-71l-64 64 83 851h1561l135 762h-218l-166-250H685z" transform="scale(.01563)"/></defs><use xlink:href="#EquityBRegular-31" transform="translate(0 .392)"/><use xlink:href="#EquityBRegular-30" transform="translate(40.7 .392)"/><use xlink:href="#EquityBRegular-35" transform="matrix(.7 0 0 .7 94.001 32.45)"/></g></g><g id="xtick_6"><g id="text_6" style="fill:#262626" transform="matrix(.165 0 0 -.165 717.088 619.507)"><defs><path id="EquityBRegular-36" d="M973 2355c160 871 768 1395 1472 1747l-64 192C1082 3859 301 2733 301 1587 301 499 838-77 1542-77c973 0 1325 768 1325 1402 0 877-582 1222-1024 1222-320 0-601-109-768-243zm-39-544c154 295 410 435 698 435 346 0 646-275 646-896 0-684-256-1145-710-1145-378 0-678 416-678 1043 0 192 12 416 44 563" transform="scale(.01563)"/></defs><use xlink:href="#EquityBRegular-31" transform="translate(0 .977)"/><use xlink:href="#EquityBRegular-30" transform="translate(40.7 .977)"/><use xlink:href="#EquityBRegular-36" transform="matrix(.7 0 0 .7 94.001 33.034)"/></g></g><g id="xtick_7"><g id="text_7" style="fill:#262626" transform="matrix(.165 0 0 -.165 841.19 619.507)"><defs><path id="EquityBRegular-37" d="M2637 4006H448l-275-979h256l185 467h1632l45-89C1773 2560 1094 1331 691 166 634 0 781-77 954-77c249 0 352 109 384 237 249 1056 902 2598 1420 3680z" transform="scale(.01563)"/></defs><use xlink:href="#EquityBRegular-31" transform="translate(0 .127)"/><use xlink:href="#EquityBRegular-30" transform="translate(40.7 .127)"/><use xlink:href="#EquityBRegular-37" transform="matrix(.7 0 0 .7 94.001 32.184)"/></g></g><g id="xtick_8"><g id="text_8" style="fill:#262626" transform="matrix(.165 0 0 -.165 964.714 619.507)"><defs><path id="EquityBRegular-38" d="M365 902c0-601 518-979 1222-979 768 0 1274 448 1274 1159 0 563-384 832-794 1049v51c461 301 711 589 711 986 0 538-487 915-1108 915-736 0-1184-525-1184-1094 0-378 263-749 672-954v-57c-403-218-793-500-793-1076m454-12c0 441 288 787 679 966 492-243 883-486 883-928 0-435-314-730-794-730-544 0-768 314-768 692m141 2304c0 313 243 614 666 614 384 0 665-250 665-659 0-371-179-627-531-851-467 204-800 460-800 896" transform="scale(.01563)"/></defs><use xlink:href="#EquityBRegular-31" transform="translate(0 .284)"/><use xlink:href="#EquityBRegular-30" transform="translate(40.7 .284)"/><use xlink:href="#EquityBRegular-38" transform="matrix(.7 0 0 .7 94.001 32.342)"/></g></g><g id="xtick_9"><g id="text_9" style="fill:#262626" transform="matrix(.165 0 0 -.165 1088.65 619.507)"><defs><path id="EquityBRegular-39" d="M2163 1606C2061 704 1363 154 589-32l-32-224C1926-90 2803 1075 2803 2419c0 1031-531 1664-1273 1664-602 0-1293-486-1293-1401 0-845 550-1287 1120-1287 313 0 537 128 704 263zm7 544c-173-281-359-460-666-460-403 0-672 268-672 1030 0 730 250 1101 672 1101 493 0 736-410 736-999 0-300-32-505-70-672" transform="scale(.01563)"/></defs><use xlink:href="#EquityBRegular-31" transform="translate(0 .284)"/><use xlink:href="#EquityBRegular-30" transform="translate(40.7 .284)"/><use xlink:href="#EquityBRegular-39" transform="matrix(.7 0 0 .7 94.001 32.342)"/></g></g><g id="text_10" style="fill:#262626" transform="matrix(.18 0 0 -.18 551.887 640.68)"><defs><path id="EquityBRegular-23" d="M1856 4390h-352l-282-1363H512v-441h621L883 1395H192V954h602L480-557h352l314 1511h704L1536-557h352l314 1511h723v441h-634l250 1191h704v441h-615l282 1363h-352l-282-1363h-704zm-621-2995 250 1191h704l-250-1191z" transform="scale(.01563)"/><path id="EquityBRegular-2d" d="M205 1760v-429h1600v429z" transform="scale(.01563)"/><path id="EquityBRegular-62" d="M966 2349c128 115 359 249 615 249 409 0 749-390 749-1126 0-794-308-1280-852-1280-275 0-512 141-512 442zM448 570c77-378 486-647 998-647 698 0 1408 493 1408 1677 0 1011-544 1414-998 1414-275 0-544-134-838-358l-52 38v2004H813L32 4429v-135l416-185z" transform="scale(.01563)"/><path id="EquityBRegular-69" d="M1075 3014H922l-781-268v-135l416-179V288l-384-96V0h1286v192l-384 96zM435 4262c0-198 179-377 378-377 205 0 384 179 384 377 0 205-179 384-384 384-199 0-378-179-378-384" transform="scale(.01563)"/><path id="EquityBRegular-74" d="M531 2598V710c0-512 192-787 659-787 372 0 660 186 781 307l-83 167c-166-96-358-128-493-128-211 0-345 134-345 422v1907h838v333h-838v723H851l-339-588-371-231v-237z" transform="scale(.01563)"/><path id="EquityBRegular-46" d="M173 4518v-224l576-96V320l-576-96V0h1792v224l-602 96v1901h1133l205-730h224v1728h-224l-205-685H1363v1709h1645l467-729h250l-103 1004z" transform="scale(.01563)"/><path id="EquityBRegular-6c" d="M1075 4698H922l-781-269v-135l416-185V288l-384-96V0h1286v192l-384 96z" transform="scale(.01563)"/><path id="EquityBRegular-6f" d="M218 1466C218 474 832-77 1581-77s1357 519 1357 1543c0 966-608 1548-1357 1548S218 2419 218 1466m601 6c0 934 359 1274 762 1274s761-327 761-1274c0-1024-358-1280-761-1280S819 550 819 1472" transform="scale(.01563)"/><path id="EquityBRegular-61" d="M1677 883c0-301-339-531-583-531-185 0-326 205-326 442 0 249 218 422 358 480l551 249zm365-941c192 0 492 135 646 583l-128 51c-45-109-141-237-250-237-140 0-166 135-166 275v1632c0 448-243 768-704 768-256 0-774-320-1005-480-134-115-179-243-179-384 0-185 115-313 250-313 147 0 281 83 281 249 0 128-32 288-38 365 77 115 288 205 429 205 313 0 492-186 492-608v-269l-902-390c-352-147-506-429-506-711 0-288 256-755 583-755 262 0 467 141 736 423h64c19-263 185-404 397-404" transform="scale(.01563)"/><path id="EquityBRegular-73" d="M301 0h179l96 83C678 38 966-77 1235-77c519 0 973 301 973 871 0 473-339 704-832 928-442 204-672 339-672 601 0 263 218 448 486 448 244 0 564-198 711-723h185v915h-140l-160-77c-128 52-340 128-615 128-601 0-870-441-870-812 0-436 230-698 742-916 563-249 679-396 679-659 0-237-192-473-474-473-397 0-634 332-736 806H301z" transform="scale(.01563)"/></defs><use xlink:href="#EquityBRegular-23"/><use xlink:href="#EquityBRegular-33" transform="translate(75.7)"/><use xlink:href="#EquityBRegular-32" transform="translate(121)"/><use xlink:href="#EquityBRegular-2d" transform="translate(171.4)"/><use xlink:href="#EquityBRegular-62" transform="translate(202.8)"/><use xlink:href="#EquityBRegular-69" transform="translate(250.8)"/><use xlink:href="#EquityBRegular-74" transform="translate(276.3)"/><use xlink:href="#EquityBRegular-46" transform="translate(330.3)"/><use xlink:href="#EquityBRegular-6c" transform="translate(390.9)"/><use xlink:href="#EquityBRegular-6f" transform="translate(416.4)"/><use xlink:href="#EquityBRegular-61" transform="translate(465.7)"/><use xlink:href="#EquityBRegular-74" transform="translate(508.8)"/><use xlink:href="#EquityBRegular-73" transform="translate(540.8)"/></g></g><g id="matplotlib.axis_2"><g id="ytick_1"><g id="text_11" style="fill:#262626" transform="matrix(.165 0 0 -.165 25.958 559.866)"><use xlink:href="#EquityBRegular-31" transform="translate(0 .558)"/><use xlink:href="#EquityBRegular-30" transform="translate(40.7 .558)"/><use xlink:href="#EquityBRegular-31" transform="matrix(.7 0 0 .7 94.001 32.616)"/></g></g><g id="ytick_2"><g id="text_12" style="fill:#262626" transform="matrix(.165 0 0 -.165 24.803 498.557)"><use xlink:href="#EquityBRegular-31" transform="translate(0 .284)"/><use xlink:href="#EquityBRegular-30" transform="translate(40.7 .284)"/><use xlink:href="#EquityBRegular-32" transform="matrix(.7 0 0 .7 94.001 32.342)"/></g></g><g id="ytick_3"><g id="text_13" style="fill:#262626" transform="matrix(.165 0 0 -.165 25.298 437.248)"><use xlink:href="#EquityBRegular-31" transform="translate(0 .284)"/><use xlink:href="#EquityBRegular-30" transform="translate(40.7 .284)"/><use xlink:href="#EquityBRegular-33" transform="matrix(.7 0 0 .7 94.001 32.342)"/></g></g><g id="ytick_4"><g id="text_14" style="fill:#262626" transform="matrix(.165 0 0 -.165 24.803 375.939)"><use xlink:href="#EquityBRegular-31" transform="translate(0 .727)"/><use xlink:href="#EquityBRegular-30" transform="translate(40.7 .727)"/><use xlink:href="#EquityBRegular-34" transform="matrix(.7 0 0 .7 94.001 32.784)"/></g></g><g id="ytick_5"><g id="text_15" style="fill:#262626" transform="matrix(.165 0 0 -.165 25.298 314.63)"><use xlink:href="#EquityBRegular-31" transform="translate(0 .392)"/><use xlink:href="#EquityBRegular-30" transform="translate(40.7 .392)"/><use xlink:href="#EquityBRegular-35" transform="matrix(.7 0 0 .7 94.001 32.45)"/></g></g><g id="ytick_6"><g id="text_16" style="fill:#262626" transform="matrix(.165 0 0 -.165 24.968 253.32)"><use xlink:href="#EquityBRegular-31" transform="translate(0 .977)"/><use xlink:href="#EquityBRegular-30" transform="translate(40.7 .977)"/><use xlink:href="#EquityBRegular-36" transform="matrix(.7 0 0 .7 94.001 33.034)"/></g></g><g id="ytick_7"><g id="text_17" style="fill:#262626" transform="matrix(.165 0 0 -.165 25.463 192.012)"><use xlink:href="#EquityBRegular-31" transform="translate(0 .127)"/><use xlink:href="#EquityBRegular-30" transform="translate(40.7 .127)"/><use xlink:href="#EquityBRegular-37" transform="matrix(.7 0 0 .7 94.001 32.184)"/></g></g><g id="ytick_8"><g id="text_18" style="fill:#262626" transform="matrix(.165 0 0 -.165 24.803 130.703)"><use xlink:href="#EquityBRegular-31" transform="translate(0 .284)"/><use xlink:href="#EquityBRegular-30" transform="translate(40.7 .284)"/><use xlink:href="#EquityBRegular-38" transform="matrix(.7 0 0 .7 94.001 32.342)"/></g></g><g id="ytick_9"><g id="text_19" style="fill:#262626" transform="matrix(.165 0 0 -.165 24.968 69.394)"><use xlink:href="#EquityBRegular-31" transform="translate(0 .284)"/><use xlink:href="#EquityBRegular-30" transform="translate(40.7 .284)"/><use xlink:href="#EquityBRegular-39" transform="matrix(.7 0 0 .7 94.001 32.342)"/></g></g><g id="text_20" style="fill:#262626" transform="matrix(0 -.18 -.18 0 16.447 335.272)"><defs><path id="EquityBRegular-54" d="M371 4518 77 3290h249l647 953h998V320l-601-96V0h1817v224l-601 96v3923h998l646-953h250l-294 1228z" transform="scale(.01563)"/><path id="EquityBRegular-6d" d="M3168 0v192l-384 96v1818c0 89-13 179-19 262 173 109 429 237 633 237 372 0 589-186 589-743V288l-384-96V0h1287v192l-384 96v1747c0 679-391 979-839 979-358 0-672-211-992-448-141 308-416 448-723 448-275 0-518-134-819-358l-51 38-39 320H890l-762-268v-135l416-179V288l-384-96V0h1286v192l-384 96v2080c128 115 359 237 615 237 377 0 589-186 589-743V288l-384-96V0z" transform="scale(.01563)"/><path id="EquityBRegular-65" d="M1466 2752c300 0 518-186 518-493 0-64-6-160-32-230H774c84 409 301 723 692 723m-724-979h1799c64 0 70 83 70 205 0 428-422 1036-1139 1036-736 0-1254-697-1254-1574C218 672 710-77 1491-77c640 0 992 487 1184 858l-179 121c-230-371-512-524-851-524-467 0-909 403-909 1216 0 57 0 121 6 179" transform="scale(.01563)"/><path id="EquityBRegular-28" d="M2118-1363C1318-602 966 499 966 1683c0 1082 346 2055 1152 2880l-160 218C1101 3981 454 3034 454 1683c0-1459 717-2489 1511-3232z" transform="scale(.01563)"/><path id="EquityBRegular-6e" d="M3174 0v192l-384 96v1747c0 679-390 979-838 979-275 0-518-134-819-358l-51 38-39 320H890l-762-268v-135l416-179V288l-384-96V0h1286v192l-384 96v2080c128 115 359 237 615 237 377 0 595-186 595-743V288l-384-96V0z" transform="scale(.01563)"/><path id="EquityBRegular-29" d="m134-1363 154-186c794 743 1510 1773 1510 3232 0 1351-646 2298-1504 3098l-160-218c807-825 1152-1798 1152-2880 0-1184-352-2285-1152-3046" transform="scale(.01563)"/></defs><use xlink:href="#EquityBRegular-54"/><use xlink:href="#EquityBRegular-69" transform="translate(71.2)"/><use xlink:href="#EquityBRegular-6d" transform="translate(96.7)"/><use xlink:href="#EquityBRegular-65" transform="translate(175.6)"/><use xlink:href="#EquityBRegular-28" transform="translate(242.4)"/><use xlink:href="#EquityBRegular-6e" transform="translate(277.6)"/><use xlink:href="#EquityBRegular-73" transform="translate(329.7)"/><use xlink:href="#EquityBRegular-29" transform="translate(368.4)"/></g></g><g id="FillBetweenPolyCollection_1"><defs><path id="me56386e0fa" d="M108.625-80.132v.122l123.854-95.251 123.854-73.47 123.854-64.304 123.855-61.333 123.854-61.32 123.854-61.285 123.854-61.3 123.854-59.61v-.212l-123.854 59.71L851.75-497.02l-123.854 61.24-123.854 61.321-123.855 61.205-123.854 64.448-123.854 73.437z" style="stroke:#a6cee3;stroke-opacity:.2;stroke-width:1.5"/></defs><g clip-path="url(#p1afd0a4e91)"><use xlink:href="#me56386e0fa" y="648" style="fill:#a6cee3;fill-opacity:.2;stroke:#a6cee3;stroke-opacity:.2;stroke-width:1.5"/></g></g><g id="FillBetweenPolyCollection_2"><defs><path id="m9a1bfcbd05" d="M108.625-314.825v2.061l123.854-6.29 123.854-13.937 123.854-11.718 123.855-11.997 123.854-24.498 123.854-48.6 123.854-59.474 123.854-61.468v-.259L975.604-489.62 851.75-429.919l-123.854 48.486-123.854 24.23-123.855 12.022-123.854 11.84-123.854 13.902z" style="stroke:#1f78b4;stroke-opacity:.2;stroke-width:1.5"/></defs><g clip-path="url(#p1afd0a4e91)"><use xlink:href="#m9a1bfcbd05" y="648" style="fill:#1f78b4;fill-opacity:.2;stroke:#1f78b4;stroke-opacity:.2;stroke-width:1.5"/></g></g><g id="FillBetweenPolyCollection_3"><defs><path id="me8e10c7ef0" d="M108.625-87.217v.184l123.854-36.11 123.854-69.642 123.854-64.644 123.855-61.658 123.854-61.33 123.854-61.265 123.854-61.456 123.854-59.54v-.189l-123.854 59.531-123.854 61.602-123.854 61.217-123.854 61.336-123.855 61.663-123.854 64.638-123.854 69.573z" style="stroke:#b2df8a;stroke-opacity:.2;stroke-width:1.5"/></defs><g clip-path="url(#p1afd0a4e91)"><use xlink:href="#me8e10c7ef0" y="648" style="fill:#b2df8a;fill-opacity:.2;stroke:#b2df8a;stroke-opacity:.2;stroke-width:1.5"/></g></g><g id="FillBetweenPolyCollection_4"><defs><path id="md18dd9688c" d="M108.625-109.075v.088l123.854-205.056 123.854-7.631 123.854-14.746 123.855-10.648 123.854-12.755 123.854-27.494 123.854-49.125 123.854-59.476v-.715l-123.854 59.575-123.854 49.17-123.854 27.465-123.854 12.936L480.187-336.7 356.333-322.22l-123.854 6.837z" style="stroke:#33a02c;stroke-opacity:.2;stroke-width:1.5"/></defs><g clip-path="url(#p1afd0a4e91)"><use xlink:href="#md18dd9688c" y="648" style="fill:#33a02c;fill-opacity:.2;stroke:#33a02c;stroke-opacity:.2;stroke-width:1.5"/></g></g><g id="FillBetweenPolyCollection_5"><defs><path id="m30d14d9b09" d="M108.625-123.883v.12l123.854-6.842 123.854-50.966 123.854-57.652 123.855-61.45 123.854-61.211 123.854-61.512 123.854-61.466 123.854-60.828v-.189l-123.854 60.746-123.854 61.557-123.854 61.632-123.854 61.171-123.855 61.498-123.854 57.596-123.854 51.007z" style="stroke:#fb9a99;stroke-opacity:.2;stroke-width:1.5"/></defs><g clip-path="url(#p1afd0a4e91)"><use xlink:href="#m30d14d9b09" y="648" style="fill:#fb9a99;fill-opacity:.2;stroke:#fb9a99;stroke-opacity:.2;stroke-width:1.5"/></g></g><g id="FillBetweenPolyCollection_6"><defs><path id="mff1ab9a682" d="M108.625-132.466v.13L232.479-314.23l123.854-4.889 123.854-14.735 123.855-9.591 123.854-12.62 123.854-25.14 123.854-53.968 123.854-58.752v-.095l-123.854 58.639-123.854 53.834-123.854 24.805-123.854 12.485-123.855 9.897-123.854 14.96-123.854 4.773z" style="stroke:#e31a1c;stroke-opacity:.2;stroke-width:1.5"/></defs><g clip-path="url(#p1afd0a4e91)"><use xlink:href="#mff1ab9a682" y="648" style="fill:#e31a1c;fill-opacity:.2;stroke:#e31a1c;stroke-opacity:.2;stroke-width:1.5"/></g></g><g id="FillBetweenPolyCollection_7"><defs><path id="mdbce5f2c1e" d="M108.625-147.809v.14l123.854-3.826 123.854-30.584 123.854-43.412 123.855-57.997 123.854-61.191 123.854-61.665 123.854-61.172 123.854-61.26v-.194l-123.854 61.357-123.854 61.05-123.854 61.848-123.854 61.096-123.855 58.052-123.854 43.202-123.854 30.801z" style="stroke:#fdbf6f;stroke-opacity:.2;stroke-width:1.5"/></defs><g clip-path="url(#p1afd0a4e91)"><use xlink:href="#mdbce5f2c1e" y="648" style="fill:#fdbf6f;fill-opacity:.2;stroke:#fdbf6f;stroke-opacity:.2;stroke-width:1.5"/></g></g><g id="FillBetweenPolyCollection_8"><defs><path id="mf5f29d0288" d="M108.625-154.782v.237L232.479-299.48l123.854-16.941 123.854-15.155 123.855-9.601 123.854-11.895 123.854-27.46 123.854-54.908 123.854-58.496v-.066l-123.854 58.277-123.854 54.819-123.854 27.112-123.854 11.841-123.855 9.718-123.854 15.278L232.48-299.81z" style="stroke:#ff7f00;stroke-opacity:.2;stroke-width:1.5"/></defs><g clip-path="url(#p1afd0a4e91)"><use xlink:href="#mf5f29d0288" y="648" style="fill:#ff7f00;fill-opacity:.2;stroke:#ff7f00;stroke-opacity:.2;stroke-width:1.5"/></g></g><g id="FillBetweenPolyCollection_9"><defs><path id="m9f44f82a59" d="M108.625-171.77v.145l123.854-16.904 123.854-10.098 123.854-25.426 123.855-54.314 123.854-60.483 123.854-61.43 123.854-61.307 123.854-61.442v-.23l-123.854 61.562L851.75-400.37 727.896-338.93l-123.854 60.48-123.855 54.349-123.854 25.4-123.854 10.004z" style="stroke:#cab2d6;stroke-opacity:.2;stroke-width:1.5"/></defs><g clip-path="url(#p1afd0a4e91)"><use xlink:href="#m9f44f82a59" y="648" style="fill:#cab2d6;fill-opacity:.2;stroke:#cab2d6;stroke-opacity:.2;stroke-width:1.5"/></g></g><g id="FillBetweenPolyCollection_10"><defs><path id="mecf4348dee" d="M108.625-187.185v.088l123.854-7.638 123.854-122.162 123.854-12.35 123.855-11.664 123.854-11.192 123.854-29.546 123.854-55.938 123.854-56.344v-.123l-123.854 55.35-123.854 52.797-123.854 33.165-123.854 11.326-123.855 11.83-123.854 11.64L232.48-195.039z" style="stroke:#6a3d9a;stroke-opacity:.2;stroke-width:1.5"/></defs><g clip-path="url(#p1afd0a4e91)"><use xlink:href="#mecf4348dee" y="648" style="fill:#6a3d9a;fill-opacity:.2;stroke:#6a3d9a;stroke-opacity:.2;stroke-width:1.5"/></g></g><g id="line2d_1"><path d="m108.625 567.931 123.854-95.243 123.854-73.453 123.854-64.375 123.855-61.272 123.854-61.317 123.854-61.266 123.854-61.339 123.854-59.646" clip-path="url(#p1afd0a4e91)" style="fill:none;stroke:#a6cee3;stroke-width:2.25;stroke-linecap:round"/><defs><path id="m28c8f9e416" d="M0 4.5a4.5 4.5 0 1 0 0-9 4.5 4.5 0 0 0 0 9z" style="stroke:#fff;stroke-width:.75"/></defs><g clip-path="url(#p1afd0a4e91)"><use xlink:href="#m28c8f9e416" x="108.625" y="567.931" style="fill:#a6cee3;stroke:#fff;stroke-width:.75"/><use xlink:href="#m28c8f9e416" x="232.479" y="472.688" style="fill:#a6cee3;stroke:#fff;stroke-width:.75"/><use xlink:href="#m28c8f9e416" x="356.333" y="399.235" style="fill:#a6cee3;stroke:#fff;stroke-width:.75"/><use xlink:href="#m28c8f9e416" x="480.187" y="334.86" style="fill:#a6cee3;stroke:#fff;stroke-width:.75"/><use xlink:href="#m28c8f9e416" x="604.042" y="273.588" style="fill:#a6cee3;stroke:#fff;stroke-width:.75"/><use xlink:href="#m28c8f9e416" x="727.896" y="212.271" style="fill:#a6cee3;stroke:#fff;stroke-width:.75"/><use xlink:href="#m28c8f9e416" x="851.75" y="151.005" style="fill:#a6cee3;stroke:#fff;stroke-width:.75"/><use xlink:href="#m28c8f9e416" x="975.604" y="89.666" style="fill:#a6cee3;stroke:#fff;stroke-width:.75"/><use xlink:href="#m28c8f9e416" x="1099.458" y="30.02" style="fill:#a6cee3;stroke:#fff;stroke-width:.75"/></g></g><g id="line2d_2"><path d="m108.625 334.094 123.854-5.342 123.854-13.93 123.854-11.75 123.855-12.027 123.854-24.358L851.75 218.14l123.854-59.577 123.854-61.427" clip-path="url(#p1afd0a4e91)" style="fill:none;stroke:#1f78b4;stroke-width:2.25;stroke-linecap:round"/><defs><path id="m726bb22113" d="M0 4.5a4.5 4.5 0 1 0 0-9 4.5 4.5 0 0 0 0 9z" style="stroke:#fff;stroke-width:.75"/></defs><g clip-path="url(#p1afd0a4e91)"><use xlink:href="#m726bb22113" x="108.625" y="334.094" style="fill:#1f78b4;stroke:#fff;stroke-width:.75"/><use xlink:href="#m726bb22113" x="232.479" y="328.752" style="fill:#1f78b4;stroke:#fff;stroke-width:.75"/><use xlink:href="#m726bb22113" x="356.333" y="314.823" style="fill:#1f78b4;stroke:#fff;stroke-width:.75"/><use xlink:href="#m726bb22113" x="480.187" y="303.071" style="fill:#1f78b4;stroke:#fff;stroke-width:.75"/><use xlink:href="#m726bb22113" x="604.042" y="291.045" style="fill:#1f78b4;stroke:#fff;stroke-width:.75"/><use xlink:href="#m726bb22113" x="727.896" y="266.687" style="fill:#1f78b4;stroke:#fff;stroke-width:.75"/><use xlink:href="#m726bb22113" x="851.75" y="218.14" style="fill:#1f78b4;stroke:#fff;stroke-width:.75"/><use xlink:href="#m726bb22113" x="975.604" y="158.563" style="fill:#1f78b4;stroke:#fff;stroke-width:.75"/><use xlink:href="#m726bb22113" x="1099.458" y="97.136" style="fill:#1f78b4;stroke:#fff;stroke-width:.75"/></g></g><g id="line2d_3"><path d="m108.625 560.883 123.854-36.105 123.854-69.612 123.854-64.635 123.855-61.664 123.854-61.333 123.854-61.24 123.854-61.524 123.854-59.537" clip-path="url(#p1afd0a4e91)" style="fill:none;stroke:#b2df8a;stroke-width:2.25;stroke-linecap:round"/><defs><path id="m769a76b542" d="M0 4.5a4.5 4.5 0 1 0 0-9 4.5 4.5 0 0 0 0 9z" style="stroke:#fff;stroke-width:.75"/></defs><g clip-path="url(#p1afd0a4e91)"><use xlink:href="#m769a76b542" x="108.625" y="560.883" style="fill:#b2df8a;stroke:#fff;stroke-width:.75"/><use xlink:href="#m769a76b542" x="232.479" y="524.778" style="fill:#b2df8a;stroke:#fff;stroke-width:.75"/><use xlink:href="#m769a76b542" x="356.333" y="455.166" style="fill:#b2df8a;stroke:#fff;stroke-width:.75"/><use xlink:href="#m769a76b542" x="480.187" y="390.531" style="fill:#b2df8a;stroke:#fff;stroke-width:.75"/><use xlink:href="#m769a76b542" x="604.042" y="328.867" style="fill:#b2df8a;stroke:#fff;stroke-width:.75"/><use xlink:href="#m769a76b542" x="727.896" y="267.534" style="fill:#b2df8a;stroke:#fff;stroke-width:.75"/><use xlink:href="#m769a76b542" x="851.75" y="206.294" style="fill:#b2df8a;stroke:#fff;stroke-width:.75"/><use xlink:href="#m769a76b542" x="975.604" y="144.77" style="fill:#b2df8a;stroke:#fff;stroke-width:.75"/><use xlink:href="#m769a76b542" x="1099.458" y="85.233" style="fill:#b2df8a;stroke:#fff;stroke-width:.75"/></g></g><g id="line2d_4"><path d="m108.625 538.972 123.854-205.694 123.854-7.233 123.854-14.606 123.855-10.726 123.854-12.837 123.854-27.474 123.854-49.118 123.854-59.515" clip-path="url(#p1afd0a4e91)" style="fill:none;stroke:#33a02c;stroke-width:2.25;stroke-linecap:round"/><defs><path id="mfed8202e74" d="M0 4.5a4.5 4.5 0 1 0 0-9 4.5 4.5 0 0 0 0 9z" style="stroke:#fff;stroke-width:.75"/></defs><g clip-path="url(#p1afd0a4e91)"><use xlink:href="#mfed8202e74" x="108.625" y="538.972" style="fill:#33a02c;stroke:#fff;stroke-width:.75"/><use xlink:href="#mfed8202e74" x="232.479" y="333.278" style="fill:#33a02c;stroke:#fff;stroke-width:.75"/><use xlink:href="#mfed8202e74" x="356.333" y="326.045" style="fill:#33a02c;stroke:#fff;stroke-width:.75"/><use xlink:href="#mfed8202e74" x="480.187" y="311.439" style="fill:#33a02c;stroke:#fff;stroke-width:.75"/><use xlink:href="#mfed8202e74" x="604.042" y="300.713" style="fill:#33a02c;stroke:#fff;stroke-width:.75"/><use xlink:href="#mfed8202e74" x="727.896" y="287.876" style="fill:#33a02c;stroke:#fff;stroke-width:.75"/><use xlink:href="#mfed8202e74" x="851.75" y="260.402" style="fill:#33a02c;stroke:#fff;stroke-width:.75"/><use xlink:href="#mfed8202e74" x="975.604" y="211.284" style="fill:#33a02c;stroke:#fff;stroke-width:.75"/><use xlink:href="#mfed8202e74" x="1099.458" y="151.769" style="fill:#33a02c;stroke:#fff;stroke-width:.75"/></g></g><g id="line2d_5"><path d="m108.625 524.182 123.854-6.818 123.854-50.99 123.854-57.621 123.855-61.473 123.854-61.189L851.75 224.52l123.854-61.502 123.854-60.787" clip-path="url(#p1afd0a4e91)" style="fill:none;stroke:#fb9a99;stroke-width:2.25;stroke-linecap:round"/><defs><path id="m074b8b4db3" d="M0 4.5a4.5 4.5 0 1 0 0-9 4.5 4.5 0 0 0 0 9z" style="stroke:#fff;stroke-width:.75"/></defs><g clip-path="url(#p1afd0a4e91)"><use xlink:href="#m074b8b4db3" x="108.625" y="524.182" style="fill:#fb9a99;stroke:#fff;stroke-width:.75"/><use xlink:href="#m074b8b4db3" x="232.479" y="517.364" style="fill:#fb9a99;stroke:#fff;stroke-width:.75"/><use xlink:href="#m074b8b4db3" x="356.333" y="466.374" style="fill:#fb9a99;stroke:#fff;stroke-width:.75"/><use xlink:href="#m074b8b4db3" x="480.187" y="408.753" style="fill:#fb9a99;stroke:#fff;stroke-width:.75"/><use xlink:href="#m074b8b4db3" x="604.042" y="347.28" style="fill:#fb9a99;stroke:#fff;stroke-width:.75"/><use xlink:href="#m074b8b4db3" x="727.896" y="286.091" style="fill:#fb9a99;stroke:#fff;stroke-width:.75"/><use xlink:href="#m074b8b4db3" x="851.75" y="224.519" style="fill:#fb9a99;stroke:#fff;stroke-width:.75"/><use xlink:href="#m074b8b4db3" x="975.604" y="163.017" style="fill:#fb9a99;stroke:#fff;stroke-width:.75"/><use xlink:href="#m074b8b4db3" x="1099.458" y="102.23" style="fill:#fb9a99;stroke:#fff;stroke-width:.75"/></g></g><g id="line2d_6"><path d="m108.625 515.601 123.854-182.034 123.854-4.821 123.854-14.863 123.855-9.78 123.854-12.524 123.854-24.95 123.854-53.911 123.854-58.69" clip-path="url(#p1afd0a4e91)" style="fill:none;stroke:#e31a1c;stroke-width:2.25;stroke-linecap:round"/><defs><path id="mb2ee109e30" d="M0 4.5a4.5 4.5 0 1 0 0-9 4.5 4.5 0 0 0 0 9z" style="stroke:#fff;stroke-width:.75"/></defs><g clip-path="url(#p1afd0a4e91)"><use xlink:href="#mb2ee109e30" x="108.625" y="515.601" style="fill:#e31a1c;stroke:#fff;stroke-width:.75"/><use xlink:href="#mb2ee109e30" x="232.479" y="333.567" style="fill:#e31a1c;stroke:#fff;stroke-width:.75"/><use xlink:href="#mb2ee109e30" x="356.333" y="328.746" style="fill:#e31a1c;stroke:#fff;stroke-width:.75"/><use xlink:href="#mb2ee109e30" x="480.187" y="313.883" style="fill:#e31a1c;stroke:#fff;stroke-width:.75"/><use xlink:href="#mb2ee109e30" x="604.042" y="304.102" style="fill:#e31a1c;stroke:#fff;stroke-width:.75"/><use xlink:href="#mb2ee109e30" x="727.896" y="291.579" style="fill:#e31a1c;stroke:#fff;stroke-width:.75"/><use xlink:href="#mb2ee109e30" x="851.75" y="266.63" style="fill:#e31a1c;stroke:#fff;stroke-width:.75"/><use xlink:href="#mb2ee109e30" x="975.604" y="212.718" style="fill:#e31a1c;stroke:#fff;stroke-width:.75"/><use xlink:href="#mb2ee109e30" x="1099.458" y="154.028" style="fill:#e31a1c;stroke:#fff;stroke-width:.75"/></g></g><g id="line2d_7"><path d="m108.625 500.263 123.854-3.788 123.854-30.695 123.854-43.308 123.855-58.016 123.854-61.152 123.854-61.75 123.854-61.118 123.854-61.3" clip-path="url(#p1afd0a4e91)" style="fill:none;stroke:#fdbf6f;stroke-width:2.25;stroke-linecap:round"/><defs><path id="m342fd8264e" d="M0 4.5a4.5 4.5 0 1 0 0-9 4.5 4.5 0 0 0 0 9z" style="stroke:#fff;stroke-width:.75"/></defs><g clip-path="url(#p1afd0a4e91)"><use xlink:href="#m342fd8264e" x="108.625" y="500.263" style="fill:#fdbf6f;stroke:#fff;stroke-width:.75"/><use xlink:href="#m342fd8264e" x="232.479" y="496.475" style="fill:#fdbf6f;stroke:#fff;stroke-width:.75"/><use xlink:href="#m342fd8264e" x="356.333" y="465.78" style="fill:#fdbf6f;stroke:#fff;stroke-width:.75"/><use xlink:href="#m342fd8264e" x="480.187" y="422.472" style="fill:#fdbf6f;stroke:#fff;stroke-width:.75"/><use xlink:href="#m342fd8264e" x="604.042" y="364.456" style="fill:#fdbf6f;stroke:#fff;stroke-width:.75"/><use xlink:href="#m342fd8264e" x="727.896" y="303.304" style="fill:#fdbf6f;stroke:#fff;stroke-width:.75"/><use xlink:href="#m342fd8264e" x="851.75" y="241.553" style="fill:#fdbf6f;stroke:#fff;stroke-width:.75"/><use xlink:href="#m342fd8264e" x="975.604" y="180.436" style="fill:#fdbf6f;stroke:#fff;stroke-width:.75"/><use xlink:href="#m342fd8264e" x="1099.458" y="119.135" style="fill:#fdbf6f;stroke:#fff;stroke-width:.75"/></g></g><g id="line2d_8"><path d="M108.625 493.343 232.479 348.34l123.854-17.016 123.854-15.244 123.855-9.672 123.854-11.856 123.854-27.28 123.854-54.852 123.854-58.389" clip-path="url(#p1afd0a4e91)" style="fill:none;stroke:#ff7f00;stroke-width:2.25;stroke-linecap:round"/><defs><path id="md2422b0ae8" d="M0 4.5a4.5 4.5 0 1 0 0-9 4.5 4.5 0 0 0 0 9z" style="stroke:#fff;stroke-width:.75"/></defs><g clip-path="url(#p1afd0a4e91)"><use xlink:href="#md2422b0ae8" x="108.625" y="493.343" style="fill:#ff7f00;stroke:#fff;stroke-width:.75"/><use xlink:href="#md2422b0ae8" x="232.479" y="348.341" style="fill:#ff7f00;stroke:#fff;stroke-width:.75"/><use xlink:href="#md2422b0ae8" x="356.333" y="331.325" style="fill:#ff7f00;stroke:#fff;stroke-width:.75"/><use xlink:href="#md2422b0ae8" x="480.187" y="316.081" style="fill:#ff7f00;stroke:#fff;stroke-width:.75"/><use xlink:href="#md2422b0ae8" x="604.042" y="306.409" style="fill:#ff7f00;stroke:#fff;stroke-width:.75"/><use xlink:href="#md2422b0ae8" x="727.896" y="294.553" style="fill:#ff7f00;stroke:#fff;stroke-width:.75"/><use xlink:href="#md2422b0ae8" x="851.75" y="267.272" style="fill:#ff7f00;stroke:#fff;stroke-width:.75"/><use xlink:href="#md2422b0ae8" x="975.604" y="212.421" style="fill:#ff7f00;stroke:#fff;stroke-width:.75"/><use xlink:href="#md2422b0ae8" x="1099.458" y="154.032" style="fill:#ff7f00;stroke:#fff;stroke-width:.75"/></g></g><g id="line2d_9"><path d="m108.625 476.3 123.854-16.905 123.854-10.055 123.854-25.416 123.855-54.33 123.854-60.483 123.854-61.434 123.854-61.314 123.854-61.49" clip-path="url(#p1afd0a4e91)" style="fill:none;stroke:#cab2d6;stroke-width:2.25;stroke-linecap:round"/><defs><path id="mdcba507ed8" d="M0 4.5a4.5 4.5 0 1 0 0-9 4.5 4.5 0 0 0 0 9z" style="stroke:#fff;stroke-width:.75"/></defs><g clip-path="url(#p1afd0a4e91)"><use xlink:href="#mdcba507ed8" x="108.625" y="476.301" style="fill:#cab2d6;stroke:#fff;stroke-width:.75"/><use xlink:href="#mdcba507ed8" x="232.479" y="459.395" style="fill:#cab2d6;stroke:#fff;stroke-width:.75"/><use xlink:href="#mdcba507ed8" x="356.333" y="449.34" style="fill:#cab2d6;stroke:#fff;stroke-width:.75"/><use xlink:href="#mdcba507ed8" x="480.187" y="423.924" style="fill:#cab2d6;stroke:#fff;stroke-width:.75"/><use xlink:href="#mdcba507ed8" x="604.042" y="369.594" style="fill:#cab2d6;stroke:#fff;stroke-width:.75"/><use xlink:href="#mdcba507ed8" x="727.896" y="309.111" style="fill:#cab2d6;stroke:#fff;stroke-width:.75"/><use xlink:href="#mdcba507ed8" x="851.75" y="247.677" style="fill:#cab2d6;stroke:#fff;stroke-width:.75"/><use xlink:href="#mdcba507ed8" x="975.604" y="186.363" style="fill:#cab2d6;stroke:#fff;stroke-width:.75"/><use xlink:href="#mdcba507ed8" x="1099.458" y="124.873" style="fill:#cab2d6;stroke:#fff;stroke-width:.75"/></g></g><g id="line2d_10"><path d="m108.625 460.862 123.854-7.747 123.854-122.53 123.854-12.003 123.855-11.756 123.854-11.258 123.854-31.184 123.854-54.508 123.854-55.863" clip-path="url(#p1afd0a4e91)" style="fill:none;stroke:#6a3d9a;stroke-width:2.25;stroke-linecap:round"/><defs><path id="m9d76a41b78" d="M0 4.5a4.5 4.5 0 1 0 0-9 4.5 4.5 0 0 0 0 9z" style="stroke:#fff;stroke-width:.75"/></defs><g clip-path="url(#p1afd0a4e91)"><use xlink:href="#m9d76a41b78" x="108.625" y="460.862" style="fill:#6a3d9a;stroke:#fff;stroke-width:.75"/><use xlink:href="#m9d76a41b78" x="232.479" y="453.115" style="fill:#6a3d9a;stroke:#fff;stroke-width:.75"/><use xlink:href="#m9d76a41b78" x="356.333" y="330.584" style="fill:#6a3d9a;stroke:#fff;stroke-width:.75"/><use xlink:href="#m9d76a41b78" x="480.187" y="318.582" style="fill:#6a3d9a;stroke:#fff;stroke-width:.75"/><use xlink:href="#m9d76a41b78" x="604.042" y="306.826" style="fill:#6a3d9a;stroke:#fff;stroke-width:.75"/><use xlink:href="#m9d76a41b78" x="727.896" y="295.568" style="fill:#6a3d9a;stroke:#fff;stroke-width:.75"/><use xlink:href="#m9d76a41b78" x="851.75" y="264.384" style="fill:#6a3d9a;stroke:#fff;stroke-width:.75"/><use xlink:href="#m9d76a41b78" x="975.604" y="209.876" style="fill:#6a3d9a;stroke:#fff;stroke-width:.75"/><use xlink:href="#m9d76a41b78" x="1099.458" y="154.013" style="fill:#6a3d9a;stroke:#fff;stroke-width:.75"/></g></g><path id="patch_3" d="M59.083 594.895V3" style="fill:none;stroke:#262626;stroke-width:1.875;stroke-linejoin:miter;stroke-linecap:square"/><path id="patch_4" d="M59.083 594.895H1149" style="fill:none;stroke:#262626;stroke-width:1.875;stroke-linejoin:miter;stroke-linecap:square"/><g id="legend_1"><path id="patch_5" d="M70.633 285.204H199.12q3.3 0 3.3-3.3V14.55q0-3.3-3.3-3.3H70.633q-3.3 0-3.3 3.3v267.354q0 3.3 3.3 3.3z" style="fill:#fafafa;opacity:.8;stroke:#ccc;stroke-width:1.5;stroke-linejoin:miter"/><g id="text_21" style="fill:#262626" transform="matrix(.18 0 0 -.18 106.51 31.063)"><defs><path id="EquityBRegular-56" d="M2381 986h-103L1248 4198l531 96v224H128v-224l499-96L1997 0h365l1433 4198 480 96v224H2880v-224l602-96z" transform="scale(.01563)"/><path id="EquityBRegular-72" d="M1632 2579c0-224 122-352 301-352 205 0 326 160 326 384 0 256-173 403-384 403-256 0-461-172-729-480l-58 26-45 454H896l-768-268v-135l416-179V288l-384-96V0h1408v192l-506 96v1747c84 186 333 493 500 602z" transform="scale(.01563)"/></defs><use xlink:href="#EquityBRegular-56"/><use xlink:href="#EquityBRegular-65" transform="translate(68.8)"/><use xlink:href="#EquityBRegular-72" transform="translate(113.6)"/><use xlink:href="#EquityBRegular-73" transform="translate(149.6)"/><use xlink:href="#EquityBRegular-69" transform="translate(188.3)"/><use xlink:href="#EquityBRegular-6f" transform="translate(213.8)"/><use xlink:href="#EquityBRegular-6e" transform="translate(263.1)"/></g><g id="line2d_21"><path d="M73.933 49.97h33" style="fill:none;stroke:#a6cee3;stroke-width:2.25;stroke-linecap:round"/><use xlink:href="#m28c8f9e416" x="90.433" y="49.97" style="fill:#a6cee3;stroke:#fff;stroke-width:.75"/></g><g id="text_22" style="fill:#262626" transform="matrix(.165 0 0 -.165 120.133 55.745)"><defs><path id="EquityBRegular-53" d="M275 45h256l314 128c237-141 621-250 941-250 806 0 1433 448 1433 1293 0 710-454 1030-1190 1344-685 294-1063 621-1063 1050 0 454 365 691 826 691 486 0 966-365 1197-1095h205l-128 1312h-128l-269-121c-192 77-499 198-909 198-851 0-1357-633-1357-1177 0-647 391-967 1287-1351 800-339 966-685 966-1081 0-468-365-775-870-775-615 0-1082 403-1261 1191H275z" transform="scale(.01563)"/><path id="EquityBRegular-71" d="M2246 550c-121-172-384-236-531-236-505 0-947 396-947 1228 0 890 493 1223 838 1223 263 0 551-141 640-442zm0-396v-1402l-505-96v-192h1395v192l-371 96v4192l-224 70c-109-121-231-140-333-102-192 58-352 102-627 102-685 0-1363-614-1363-1625C218 358 870-77 1389-77c243 0 499 64 793 231z" transform="scale(.01563)"/></defs><use xlink:href="#EquityBRegular-53"/><use xlink:href="#EquityBRegular-65" transform="translate(54.6)"/><use xlink:href="#EquityBRegular-71" transform="translate(99.4)"/></g><g id="line2d_22"><path d="M73.933 74.292h33" style="fill:none;stroke:#1f78b4;stroke-width:2.25;stroke-linecap:round"/><use xlink:href="#m726bb22113" x="90.433" y="74.292" style="fill:#1f78b4;stroke:#fff;stroke-width:.75"/></g><g id="text_23" style="fill:#262626" transform="matrix(.165 0 0 -.165 120.133 80.067)"><defs><path id="EquityBRegular-50" d="M1760 1984c1011 0 1619 480 1619 1248 0 934-845 1286-1587 1286H173v-224l576-96V320l-576-96V0h1830v224l-633 96v1664zm-390 2202h422c576 0 947-263 947-992 0-564-409-916-889-916h-480z" transform="scale(.01563)"/></defs><use xlink:href="#EquityBRegular-50"/><use xlink:href="#EquityBRegular-61" transform="translate(56.3)"/><use xlink:href="#EquityBRegular-72" transform="translate(99.4)"/></g><g id="line2d_23"><path d="M73.933 98.614h33" style="fill:none;stroke:#b2df8a;stroke-width:2.25;stroke-linecap:round"/><use xlink:href="#m769a76b542" x="90.433" y="98.614" style="fill:#b2df8a;stroke:#fff;stroke-width:.75"/></g><g id="text_24" style="fill:#262626" transform="matrix(.165 0 0 -.165 120.133 104.39)"><defs><path id="EquityBRegular-64" d="M2272 608c-141-128-397-288-678-288-372 0-839 422-839 1222 0 890 531 1204 877 1204 262 0 512-141 640-320zm518 4090h-153l-800-269v-135l435-185V2912c-154 45-390 102-678 102-692 0-1376-614-1376-1625C218 358 864-77 1299-77c327 0 602 83 896 301h58l160-301h153l596 192v173l-372 179z" transform="scale(.01563)"/></defs><use xlink:href="#EquityBRegular-53"/><use xlink:href="#EquityBRegular-65" transform="translate(54.6)"/><use xlink:href="#EquityBRegular-71" transform="translate(99.4)"/><use xlink:href="#EquityBRegular-53" transform="translate(148.9)"/><use xlink:href="#EquityBRegular-69" transform="translate(203.5)"/><use xlink:href="#EquityBRegular-6d" transform="translate(229)"/><use xlink:href="#EquityBRegular-64" transform="translate(307.9)"/><use xlink:href="#EquityBRegular-38" transform="translate(359.8)"/></g><g id="line2d_24"><path d="M73.933 122.936h33" style="fill:none;stroke:#33a02c;stroke-width:2.25;stroke-linecap:round"/><use xlink:href="#mfed8202e74" x="90.433" y="122.936" style="fill:#33a02c;stroke:#fff;stroke-width:.75"/></g><g id="text_25" style="fill:#262626" transform="matrix(.165 0 0 -.165 120.133 128.711)"><use xlink:href="#EquityBRegular-50"/><use xlink:href="#EquityBRegular-61" transform="translate(56.3)"/><use xlink:href="#EquityBRegular-72" transform="translate(99.4)"/><use xlink:href="#EquityBRegular-53" transform="translate(135.4)"/><use xlink:href="#EquityBRegular-69" transform="translate(190)"/><use xlink:href="#EquityBRegular-6d" transform="translate(215.5)"/><use xlink:href="#EquityBRegular-64" transform="translate(294.4)"/><use xlink:href="#EquityBRegular-38" transform="translate(346.3)"/></g><g id="line2d_25"><path d="M73.933 147.259h33" style="fill:none;stroke:#fb9a99;stroke-width:2.25;stroke-linecap:round"/><use xlink:href="#m074b8b4db3" x="90.433" y="147.259" style="fill:#fb9a99;stroke:#fff;stroke-width:.75"/></g><g id="text_26" style="fill:#262626" transform="matrix(.165 0 0 -.165 120.133 153.034)"><use xlink:href="#EquityBRegular-53"/><use xlink:href="#EquityBRegular-65" transform="translate(54.6)"/><use xlink:href="#EquityBRegular-71" transform="translate(99.4)"/><use xlink:href="#EquityBRegular-53" transform="translate(148.9)"/><use xlink:href="#EquityBRegular-69" transform="translate(203.5)"/><use xlink:href="#EquityBRegular-6d" transform="translate(229)"/><use xlink:href="#EquityBRegular-64" transform="translate(307.9)"/><use xlink:href="#EquityBRegular-31" transform="translate(359.8)"/><use xlink:href="#EquityBRegular-36" transform="translate(400.5)"/></g><g id="line2d_26"><path d="M73.933 171.58h33" style="fill:none;stroke:#e31a1c;stroke-width:2.25;stroke-linecap:round"/><use xlink:href="#mb2ee109e30" x="90.433" y="171.581" style="fill:#e31a1c;stroke:#fff;stroke-width:.75"/></g><g id="text_27" style="fill:#262626" transform="matrix(.165 0 0 -.165 120.133 177.356)"><use xlink:href="#EquityBRegular-50"/><use xlink:href="#EquityBRegular-61" transform="translate(56.3)"/><use xlink:href="#EquityBRegular-72" transform="translate(99.4)"/><use xlink:href="#EquityBRegular-53" transform="translate(135.4)"/><use xlink:href="#EquityBRegular-69" transform="translate(190)"/><use xlink:href="#EquityBRegular-6d" transform="translate(215.5)"/><use xlink:href="#EquityBRegular-64" transform="translate(294.4)"/><use xlink:href="#EquityBRegular-31" transform="translate(346.3)"/><use xlink:href="#EquityBRegular-36" transform="translate(387)"/></g><g id="line2d_27"><path d="M73.933 195.903h33" style="fill:none;stroke:#fdbf6f;stroke-width:2.25;stroke-linecap:round"/><use xlink:href="#m342fd8264e" x="90.433" y="195.903" style="fill:#fdbf6f;stroke:#fff;stroke-width:.75"/></g><g id="text_28" style="fill:#262626" transform="matrix(.165 0 0 -.165 120.133 201.678)"><use xlink:href="#EquityBRegular-53"/><use xlink:href="#EquityBRegular-65" transform="translate(54.6)"/><use xlink:href="#EquityBRegular-71" transform="translate(99.4)"/><use xlink:href="#EquityBRegular-53" transform="translate(148.9)"/><use xlink:href="#EquityBRegular-69" transform="translate(203.5)"/><use xlink:href="#EquityBRegular-6d" transform="translate(229)"/><use xlink:href="#EquityBRegular-64" transform="translate(307.9)"/><use xlink:href="#EquityBRegular-33" transform="translate(359.8)"/><use xlink:href="#EquityBRegular-32" transform="translate(405.1)"/></g><g id="line2d_28"><path d="M73.933 220.225h33" style="fill:none;stroke:#ff7f00;stroke-width:2.25;stroke-linecap:round"/><use xlink:href="#md2422b0ae8" x="90.433" y="220.225" style="fill:#ff7f00;stroke:#fff;stroke-width:.75"/></g><g id="text_29" style="fill:#262626" transform="matrix(.165 0 0 -.165 120.133 226)"><use xlink:href="#EquityBRegular-50"/><use xlink:href="#EquityBRegular-61" transform="translate(56.3)"/><use xlink:href="#EquityBRegular-72" transform="translate(99.4)"/><use xlink:href="#EquityBRegular-53" transform="translate(135.4)"/><use xlink:href="#EquityBRegular-69" transform="translate(190)"/><use xlink:href="#EquityBRegular-6d" transform="translate(215.5)"/><use xlink:href="#EquityBRegular-64" transform="translate(294.4)"/><use xlink:href="#EquityBRegular-33" transform="translate(346.3)"/><use xlink:href="#EquityBRegular-32" transform="translate(391.6)"/></g><g id="line2d_29"><path d="M73.933 244.547h33" style="fill:none;stroke:#cab2d6;stroke-width:2.25;stroke-linecap:round"/><use xlink:href="#mdcba507ed8" x="90.433" y="244.547" style="fill:#cab2d6;stroke:#fff;stroke-width:.75"/></g><g id="text_30" style="fill:#262626" transform="matrix(.165 0 0 -.165 120.133 250.322)"><use xlink:href="#EquityBRegular-53"/><use xlink:href="#EquityBRegular-65" transform="translate(54.6)"/><use xlink:href="#EquityBRegular-71" transform="translate(99.4)"/><use xlink:href="#EquityBRegular-53" transform="translate(148.9)"/><use xlink:href="#EquityBRegular-69" transform="translate(203.5)"/><use xlink:href="#EquityBRegular-6d" transform="translate(229)"/><use xlink:href="#EquityBRegular-64" transform="translate(307.9)"/><use xlink:href="#EquityBRegular-36" transform="translate(359.8)"/><use xlink:href="#EquityBRegular-34" transform="translate(408.3)"/></g><g id="line2d_30"><path d="M73.933 268.869h33" style="fill:none;stroke:#6a3d9a;stroke-width:2.25;stroke-linecap:round"/><use xlink:href="#m9d76a41b78" x="90.433" y="268.869" style="fill:#6a3d9a;stroke:#fff;stroke-width:.75"/></g><g id="text_31" style="fill:#262626" transform="matrix(.165 0 0 -.165 120.133 274.644)"><use xlink:href="#EquityBRegular-50"/><use xlink:href="#EquityBRegular-61" transform="translate(56.3)"/><use xlink:href="#EquityBRegular-72" transform="translate(99.4)"/><use xlink:href="#EquityBRegular-53" transform="translate(135.4)"/><use xlink:href="#EquityBRegular-69" transform="translate(190)"/><use xlink:href="#EquityBRegular-6d" transform="translate(215.5)"/><use xlink:href="#EquityBRegular-64" transform="translate(294.4)"/><use xlink:href="#EquityBRegular-36" transform="translate(346.3)"/><use xlink:href="#EquityBRegular-34" transform="translate(394.8)"/></g></g></g></g><defs><clipPath id="p1afd0a4e91"><path d="M59.083 3h1089.916v591.894H59.083z"/></clipPath></defs></svg>